<svg width="967" height="914" viewBox="0 0 967 914" fill="none" xmlns="http://www.w3.org/2000/svg">
<g clip-path="url(#clip0)">
<rect width="967" height="914" fill="white"/>
<circle cx="198" cy="158" r="4" fill="#FF5C00"/>
<path d="M199.5 158L736.184 293.277" stroke="#FF5C00" stroke-width="3"/>
<circle cx="738" cy="294" r="4" fill="#FF5C00"/>
<path d="M750.961 299H749.555V290.039C749.216 290.362 748.771 290.685 748.219 291.008C747.672 291.331 747.18 291.573 746.742 291.734V290.375C747.529 290.005 748.216 289.557 748.805 289.031C749.393 288.505 749.81 287.995 750.055 287.5H750.961V299ZM754.781 296.352L756.133 296.227C756.247 296.862 756.466 297.323 756.789 297.609C757.112 297.896 757.526 298.039 758.031 298.039C758.464 298.039 758.841 297.94 759.164 297.742C759.492 297.544 759.76 297.281 759.969 296.953C760.177 296.62 760.352 296.172 760.492 295.609C760.633 295.047 760.703 294.474 760.703 293.891C760.703 293.828 760.701 293.734 760.695 293.609C760.414 294.057 760.029 294.422 759.539 294.703C759.055 294.979 758.529 295.117 757.961 295.117C757.013 295.117 756.211 294.773 755.555 294.086C754.898 293.398 754.57 292.492 754.57 291.367C754.57 290.206 754.911 289.271 755.594 288.562C756.281 287.854 757.141 287.5 758.172 287.5C758.917 287.5 759.596 287.701 760.211 288.102C760.831 288.503 761.299 289.076 761.617 289.82C761.94 290.56 762.102 291.633 762.102 293.039C762.102 294.503 761.943 295.669 761.625 296.539C761.307 297.404 760.833 298.062 760.203 298.516C759.578 298.969 758.844 299.195 758 299.195C757.104 299.195 756.372 298.948 755.805 298.453C755.237 297.953 754.896 297.253 754.781 296.352ZM760.539 291.297C760.539 290.49 760.323 289.849 759.891 289.375C759.464 288.901 758.948 288.664 758.344 288.664C757.719 288.664 757.174 288.919 756.711 289.43C756.247 289.94 756.016 290.602 756.016 291.414C756.016 292.143 756.234 292.737 756.672 293.195C757.115 293.648 757.659 293.875 758.305 293.875C758.956 293.875 759.49 293.648 759.906 293.195C760.328 292.737 760.539 292.104 760.539 291.297ZM763.742 290.297C763.742 289.479 763.948 288.784 764.359 288.211C764.771 287.638 765.367 287.352 766.148 287.352C766.867 287.352 767.461 287.609 767.93 288.125C768.404 288.635 768.641 289.388 768.641 290.383C768.641 291.352 768.401 292.099 767.922 292.625C767.448 293.146 766.862 293.406 766.164 293.406C765.471 293.406 764.893 293.148 764.43 292.633C763.971 292.117 763.742 291.339 763.742 290.297ZM766.188 288.32C765.839 288.32 765.547 288.471 765.312 288.773C765.083 289.076 764.969 289.63 764.969 290.438C764.969 291.172 765.086 291.69 765.32 291.992C765.555 292.289 765.844 292.438 766.188 292.438C766.542 292.438 766.833 292.286 767.062 291.984C767.297 291.682 767.414 291.13 767.414 290.328C767.414 289.589 767.297 289.07 767.062 288.773C766.828 288.471 766.536 288.32 766.188 288.32ZM766.195 299.422L772.461 287.352H773.602L767.359 299.422H766.195ZM771.148 296.312C771.148 295.49 771.354 294.794 771.766 294.227C772.177 293.654 772.776 293.367 773.562 293.367C774.281 293.367 774.875 293.625 775.344 294.141C775.818 294.651 776.055 295.404 776.055 296.398C776.055 297.367 775.815 298.115 775.336 298.641C774.862 299.161 774.273 299.422 773.57 299.422C772.878 299.422 772.299 299.164 771.836 298.648C771.378 298.128 771.148 297.349 771.148 296.312ZM773.602 294.336C773.247 294.336 772.953 294.487 772.719 294.789C772.49 295.091 772.375 295.646 772.375 296.453C772.375 297.182 772.492 297.698 772.727 298C772.961 298.302 773.25 298.453 773.594 298.453C773.953 298.453 774.247 298.302 774.477 298C774.711 297.698 774.828 297.146 774.828 296.344C774.828 295.604 774.711 295.086 774.477 294.789C774.242 294.487 773.951 294.336 773.602 294.336ZM791.578 287.547H796.156C797.062 287.547 797.737 287.586 798.18 287.664C798.628 287.737 799.026 287.893 799.375 288.133C799.729 288.372 800.023 288.693 800.258 289.094C800.492 289.49 800.609 289.935 800.609 290.43C800.609 290.966 800.464 291.458 800.172 291.906C799.885 292.354 799.495 292.69 799 292.914C799.698 293.117 800.234 293.464 800.609 293.953C800.984 294.443 801.172 295.018 801.172 295.68C801.172 296.201 801.049 296.708 800.805 297.203C800.565 297.693 800.234 298.086 799.812 298.383C799.396 298.674 798.88 298.854 798.266 298.922C797.88 298.964 796.951 298.99 795.477 299H791.578V287.547ZM793.891 289.453V292.102H795.406C796.307 292.102 796.867 292.089 797.086 292.062C797.482 292.016 797.792 291.88 798.016 291.656C798.245 291.427 798.359 291.128 798.359 290.758C798.359 290.404 798.26 290.117 798.062 289.898C797.87 289.674 797.581 289.539 797.195 289.492C796.966 289.466 796.307 289.453 795.219 289.453H793.891ZM793.891 294.008V297.07H796.031C796.865 297.07 797.393 297.047 797.617 297C797.961 296.938 798.24 296.786 798.453 296.547C798.672 296.302 798.781 295.977 798.781 295.57C798.781 295.227 798.698 294.935 798.531 294.695C798.365 294.456 798.122 294.281 797.805 294.172C797.492 294.062 796.81 294.008 795.758 294.008H793.891ZM808.578 299V297.758C808.276 298.201 807.878 298.549 807.383 298.805C806.893 299.06 806.375 299.188 805.828 299.188C805.271 299.188 804.771 299.065 804.328 298.82C803.885 298.576 803.565 298.232 803.367 297.789C803.169 297.346 803.07 296.734 803.07 295.953V290.703H805.266V294.516C805.266 295.682 805.305 296.398 805.383 296.664C805.466 296.924 805.615 297.133 805.828 297.289C806.042 297.44 806.312 297.516 806.641 297.516C807.016 297.516 807.352 297.414 807.648 297.211C807.945 297.003 808.148 296.747 808.258 296.445C808.367 296.138 808.422 295.391 808.422 294.203V290.703H810.617V299H808.578ZM812.125 296.633L814.328 296.297C814.422 296.724 814.612 297.049 814.898 297.273C815.185 297.492 815.586 297.602 816.102 297.602C816.669 297.602 817.096 297.497 817.383 297.289C817.576 297.143 817.672 296.948 817.672 296.703C817.672 296.536 817.62 296.398 817.516 296.289C817.406 296.185 817.161 296.089 816.781 296C815.01 295.609 813.888 295.253 813.414 294.93C812.758 294.482 812.43 293.859 812.43 293.062C812.43 292.344 812.714 291.74 813.281 291.25C813.849 290.76 814.729 290.516 815.922 290.516C817.057 290.516 817.901 290.701 818.453 291.07C819.005 291.44 819.385 291.987 819.594 292.711L817.523 293.094C817.435 292.771 817.266 292.523 817.016 292.352C816.771 292.18 816.419 292.094 815.961 292.094C815.383 292.094 814.969 292.174 814.719 292.336C814.552 292.451 814.469 292.599 814.469 292.781C814.469 292.938 814.542 293.07 814.688 293.18C814.885 293.326 815.568 293.531 816.734 293.797C817.906 294.062 818.724 294.388 819.188 294.773C819.646 295.164 819.875 295.708 819.875 296.406C819.875 297.167 819.557 297.82 818.922 298.367C818.286 298.914 817.346 299.188 816.102 299.188C814.971 299.188 814.076 298.958 813.414 298.5C812.758 298.042 812.328 297.419 812.125 296.633ZM821.805 289.578V287.547H824V289.578H821.805ZM821.805 299V290.703H824V299H821.805ZM833.805 299H831.609V294.766C831.609 293.87 831.562 293.292 831.469 293.031C831.375 292.766 831.221 292.56 831.008 292.414C830.799 292.268 830.547 292.195 830.25 292.195C829.87 292.195 829.529 292.299 829.227 292.508C828.924 292.716 828.716 292.992 828.602 293.336C828.492 293.68 828.438 294.315 828.438 295.242V299H826.242V290.703H828.281V291.922C829.005 290.984 829.917 290.516 831.016 290.516C831.5 290.516 831.943 290.604 832.344 290.781C832.745 290.953 833.047 291.174 833.25 291.445C833.458 291.716 833.602 292.023 833.68 292.367C833.763 292.711 833.805 293.203 833.805 293.844V299ZM840.844 296.359L843.031 296.727C842.75 297.529 842.305 298.141 841.695 298.562C841.091 298.979 840.333 299.188 839.422 299.188C837.979 299.188 836.911 298.716 836.219 297.773C835.672 297.018 835.398 296.065 835.398 294.914C835.398 293.539 835.758 292.464 836.477 291.688C837.195 290.906 838.104 290.516 839.203 290.516C840.438 290.516 841.411 290.924 842.125 291.742C842.839 292.555 843.18 293.802 843.148 295.484H837.648C837.664 296.135 837.841 296.643 838.18 297.008C838.518 297.367 838.94 297.547 839.445 297.547C839.789 297.547 840.078 297.453 840.312 297.266C840.547 297.078 840.724 296.776 840.844 296.359ZM840.969 294.141C840.953 293.505 840.789 293.023 840.477 292.695C840.164 292.362 839.784 292.195 839.336 292.195C838.857 292.195 838.461 292.37 838.148 292.719C837.836 293.068 837.682 293.542 837.688 294.141H840.969ZM844.172 296.633L846.375 296.297C846.469 296.724 846.659 297.049 846.945 297.273C847.232 297.492 847.633 297.602 848.148 297.602C848.716 297.602 849.143 297.497 849.43 297.289C849.622 297.143 849.719 296.948 849.719 296.703C849.719 296.536 849.667 296.398 849.562 296.289C849.453 296.185 849.208 296.089 848.828 296C847.057 295.609 845.935 295.253 845.461 294.93C844.805 294.482 844.477 293.859 844.477 293.062C844.477 292.344 844.76 291.74 845.328 291.25C845.896 290.76 846.776 290.516 847.969 290.516C849.104 290.516 849.948 290.701 850.5 291.07C851.052 291.44 851.432 291.987 851.641 292.711L849.57 293.094C849.482 292.771 849.312 292.523 849.062 292.352C848.818 292.18 848.466 292.094 848.008 292.094C847.43 292.094 847.016 292.174 846.766 292.336C846.599 292.451 846.516 292.599 846.516 292.781C846.516 292.938 846.589 293.07 846.734 293.18C846.932 293.326 847.615 293.531 848.781 293.797C849.953 294.062 850.771 294.388 851.234 294.773C851.693 295.164 851.922 295.708 851.922 296.406C851.922 297.167 851.604 297.82 850.969 298.367C850.333 298.914 849.393 299.188 848.148 299.188C847.018 299.188 846.122 298.958 845.461 298.5C844.805 298.042 844.375 297.419 844.172 296.633ZM853.078 296.633L855.281 296.297C855.375 296.724 855.565 297.049 855.852 297.273C856.138 297.492 856.539 297.602 857.055 297.602C857.622 297.602 858.049 297.497 858.336 297.289C858.529 297.143 858.625 296.948 858.625 296.703C858.625 296.536 858.573 296.398 858.469 296.289C858.359 296.185 858.115 296.089 857.734 296C855.964 295.609 854.841 295.253 854.367 294.93C853.711 294.482 853.383 293.859 853.383 293.062C853.383 292.344 853.667 291.74 854.234 291.25C854.802 290.76 855.682 290.516 856.875 290.516C858.01 290.516 858.854 290.701 859.406 291.07C859.958 291.44 860.339 291.987 860.547 292.711L858.477 293.094C858.388 292.771 858.219 292.523 857.969 292.352C857.724 292.18 857.372 292.094 856.914 292.094C856.336 292.094 855.922 292.174 855.672 292.336C855.505 292.451 855.422 292.599 855.422 292.781C855.422 292.938 855.495 293.07 855.641 293.18C855.839 293.326 856.521 293.531 857.688 293.797C858.859 294.062 859.677 294.388 860.141 294.773C860.599 295.164 860.828 295.708 860.828 296.406C860.828 297.167 860.51 297.82 859.875 298.367C859.24 298.914 858.299 299.188 857.055 299.188C855.924 299.188 855.029 298.958 854.367 298.5C853.711 298.042 853.281 297.419 853.078 296.633Z" fill="#FF5C00"/>
<path d="M163.055 160.648V162H155.484C155.474 161.661 155.529 161.336 155.648 161.023C155.841 160.508 156.148 160 156.57 159.5C156.997 159 157.612 158.422 158.414 157.766C159.659 156.745 160.5 155.938 160.938 155.344C161.375 154.745 161.594 154.18 161.594 153.648C161.594 153.091 161.393 152.622 160.992 152.242C160.596 151.857 160.078 151.664 159.438 151.664C158.76 151.664 158.219 151.867 157.812 152.273C157.406 152.68 157.201 153.242 157.195 153.961L155.75 153.812C155.849 152.734 156.221 151.914 156.867 151.352C157.513 150.784 158.38 150.5 159.469 150.5C160.568 150.5 161.438 150.805 162.078 151.414C162.719 152.023 163.039 152.779 163.039 153.68C163.039 154.138 162.945 154.589 162.758 155.031C162.57 155.474 162.258 155.94 161.82 156.43C161.388 156.919 160.667 157.591 159.656 158.445C158.812 159.154 158.271 159.635 158.031 159.891C157.792 160.141 157.594 160.393 157.438 160.648H163.055ZM169.078 162V159.258H164.109V157.969L169.336 150.547H170.484V157.969H172.031V159.258H170.484V162H169.078ZM169.078 157.969V152.805L165.492 157.969H169.078ZM173.742 153.297C173.742 152.479 173.948 151.784 174.359 151.211C174.771 150.638 175.367 150.352 176.148 150.352C176.867 150.352 177.461 150.609 177.93 151.125C178.404 151.635 178.641 152.388 178.641 153.383C178.641 154.352 178.401 155.099 177.922 155.625C177.448 156.146 176.862 156.406 176.164 156.406C175.471 156.406 174.893 156.148 174.43 155.633C173.971 155.117 173.742 154.339 173.742 153.297ZM176.188 151.32C175.839 151.32 175.547 151.471 175.312 151.773C175.083 152.076 174.969 152.63 174.969 153.438C174.969 154.172 175.086 154.69 175.32 154.992C175.555 155.289 175.844 155.438 176.188 155.438C176.542 155.438 176.833 155.286 177.062 154.984C177.297 154.682 177.414 154.13 177.414 153.328C177.414 152.589 177.297 152.07 177.062 151.773C176.828 151.471 176.536 151.32 176.188 151.32ZM176.195 162.422L182.461 150.352H183.602L177.359 162.422H176.195ZM181.148 159.312C181.148 158.49 181.354 157.794 181.766 157.227C182.177 156.654 182.776 156.367 183.562 156.367C184.281 156.367 184.875 156.625 185.344 157.141C185.818 157.651 186.055 158.404 186.055 159.398C186.055 160.367 185.815 161.115 185.336 161.641C184.862 162.161 184.273 162.422 183.57 162.422C182.878 162.422 182.299 162.164 181.836 161.648C181.378 161.128 181.148 160.349 181.148 159.312ZM183.602 157.336C183.247 157.336 182.953 157.487 182.719 157.789C182.49 158.091 182.375 158.646 182.375 159.453C182.375 160.182 182.492 160.698 182.727 161C182.961 161.302 183.25 161.453 183.594 161.453C183.953 161.453 184.247 161.302 184.477 161C184.711 160.698 184.828 160.146 184.828 159.344C184.828 158.604 184.711 158.086 184.477 157.789C184.242 157.487 183.951 157.336 183.602 157.336Z" fill="#FF5C00"/>
<circle cx="200" cy="475" r="4" fill="#FF5C00"/>
<path d="M199.5 475L736.5 562.5" stroke="#FF5C00" stroke-width="3"/>
<path d="M742 563C742 565.209 740.209 567 738 567C735.791 567 734 565.209 734 563C734 560.791 735.791 559 738 559C740.209 559 742 560.791 742 563Z" fill="#FF5C00"/>
<path d="M748.828 561.789C748.245 561.576 747.812 561.271 747.531 560.875C747.25 560.479 747.109 560.005 747.109 559.453C747.109 558.62 747.409 557.919 748.008 557.352C748.607 556.784 749.404 556.5 750.398 556.5C751.398 556.5 752.203 556.792 752.812 557.375C753.422 557.953 753.727 558.659 753.727 559.492C753.727 560.023 753.586 560.487 753.305 560.883C753.029 561.273 752.607 561.576 752.039 561.789C752.742 562.018 753.276 562.388 753.641 562.898C754.01 563.409 754.195 564.018 754.195 564.727C754.195 565.706 753.849 566.529 753.156 567.195C752.464 567.862 751.552 568.195 750.422 568.195C749.292 568.195 748.38 567.862 747.688 567.195C746.995 566.523 746.648 565.688 746.648 564.688C746.648 563.943 746.836 563.32 747.211 562.82C747.591 562.315 748.13 561.971 748.828 561.789ZM748.547 559.406C748.547 559.948 748.721 560.391 749.07 560.734C749.419 561.078 749.872 561.25 750.43 561.25C750.971 561.25 751.414 561.081 751.758 560.742C752.107 560.398 752.281 559.979 752.281 559.484C752.281 558.969 752.102 558.536 751.742 558.188C751.388 557.833 750.945 557.656 750.414 557.656C749.878 557.656 749.432 557.828 749.078 558.172C748.724 558.516 748.547 558.927 748.547 559.406ZM748.094 564.695C748.094 565.096 748.188 565.484 748.375 565.859C748.568 566.234 748.852 566.526 749.227 566.734C749.602 566.938 750.005 567.039 750.438 567.039C751.109 567.039 751.664 566.823 752.102 566.391C752.539 565.958 752.758 565.409 752.758 564.742C752.758 564.065 752.531 563.505 752.078 563.062C751.63 562.62 751.068 562.398 750.391 562.398C749.729 562.398 749.18 562.617 748.742 563.055C748.31 563.492 748.094 564.039 748.094 564.695ZM755.836 559.297C755.836 558.479 756.042 557.784 756.453 557.211C756.865 556.638 757.461 556.352 758.242 556.352C758.961 556.352 759.555 556.609 760.023 557.125C760.497 557.635 760.734 558.388 760.734 559.383C760.734 560.352 760.495 561.099 760.016 561.625C759.542 562.146 758.956 562.406 758.258 562.406C757.565 562.406 756.987 562.148 756.523 561.633C756.065 561.117 755.836 560.339 755.836 559.297ZM758.281 557.32C757.932 557.32 757.641 557.471 757.406 557.773C757.177 558.076 757.062 558.63 757.062 559.438C757.062 560.172 757.18 560.69 757.414 560.992C757.648 561.289 757.938 561.438 758.281 561.438C758.635 561.438 758.927 561.286 759.156 560.984C759.391 560.682 759.508 560.13 759.508 559.328C759.508 558.589 759.391 558.07 759.156 557.773C758.922 557.471 758.63 557.32 758.281 557.32ZM758.289 568.422L764.555 556.352H765.695L759.453 568.422H758.289ZM763.242 565.312C763.242 564.49 763.448 563.794 763.859 563.227C764.271 562.654 764.87 562.367 765.656 562.367C766.375 562.367 766.969 562.625 767.438 563.141C767.911 563.651 768.148 564.404 768.148 565.398C768.148 566.367 767.909 567.115 767.43 567.641C766.956 568.161 766.367 568.422 765.664 568.422C764.971 568.422 764.393 568.164 763.93 567.648C763.471 567.128 763.242 566.349 763.242 565.312ZM765.695 563.336C765.341 563.336 765.047 563.487 764.812 563.789C764.583 564.091 764.469 564.646 764.469 565.453C764.469 566.182 764.586 566.698 764.82 567C765.055 567.302 765.344 567.453 765.688 567.453C766.047 567.453 766.341 567.302 766.57 567C766.805 566.698 766.922 566.146 766.922 565.344C766.922 564.604 766.805 564.086 766.57 563.789C766.336 563.487 766.044 563.336 765.695 563.336ZM788.117 568V556.547H796.609V558.484H790.43V561.023H796.18V562.953H790.43V566.07H796.828V568H788.117ZM806.383 568H804.344V566.781C804.005 567.255 803.604 567.609 803.141 567.844C802.682 568.073 802.219 568.188 801.75 568.188C800.797 568.188 799.979 567.805 799.297 567.039C798.62 566.268 798.281 565.195 798.281 563.82C798.281 562.414 798.612 561.346 799.273 560.617C799.935 559.883 800.771 559.516 801.781 559.516C802.708 559.516 803.51 559.901 804.188 560.672V556.547H806.383V568ZM800.523 563.672C800.523 564.557 800.646 565.198 800.891 565.594C801.245 566.167 801.74 566.453 802.375 566.453C802.88 566.453 803.31 566.24 803.664 565.812C804.018 565.38 804.195 564.737 804.195 563.883C804.195 562.93 804.023 562.245 803.68 561.828C803.336 561.406 802.896 561.195 802.359 561.195C801.839 561.195 801.401 561.404 801.047 561.82C800.698 562.232 800.523 562.849 800.523 563.672ZM814.016 568V566.758C813.714 567.201 813.315 567.549 812.82 567.805C812.331 568.06 811.812 568.188 811.266 568.188C810.708 568.188 810.208 568.065 809.766 567.82C809.323 567.576 809.003 567.232 808.805 566.789C808.607 566.346 808.508 565.734 808.508 564.953V559.703H810.703V563.516C810.703 564.682 810.742 565.398 810.82 565.664C810.904 565.924 811.052 566.133 811.266 566.289C811.479 566.44 811.75 566.516 812.078 566.516C812.453 566.516 812.789 566.414 813.086 566.211C813.383 566.003 813.586 565.747 813.695 565.445C813.805 565.138 813.859 564.391 813.859 563.203V559.703H816.055V568H814.016ZM825.57 562.156L823.406 562.547C823.333 562.115 823.167 561.789 822.906 561.57C822.651 561.352 822.318 561.242 821.906 561.242C821.359 561.242 820.922 561.432 820.594 561.812C820.271 562.188 820.109 562.818 820.109 563.703C820.109 564.688 820.273 565.383 820.602 565.789C820.935 566.195 821.38 566.398 821.938 566.398C822.354 566.398 822.695 566.281 822.961 566.047C823.227 565.807 823.414 565.398 823.523 564.82L825.68 565.188C825.456 566.177 825.026 566.924 824.391 567.43C823.755 567.935 822.904 568.188 821.836 568.188C820.622 568.188 819.654 567.805 818.93 567.039C818.211 566.273 817.852 565.214 817.852 563.859C817.852 562.49 818.214 561.424 818.938 560.664C819.661 559.898 820.641 559.516 821.875 559.516C822.885 559.516 823.688 559.734 824.281 560.172C824.88 560.604 825.31 561.266 825.57 562.156ZM828.883 562.234L826.891 561.875C827.115 561.073 827.5 560.479 828.047 560.094C828.594 559.708 829.406 559.516 830.484 559.516C831.464 559.516 832.193 559.633 832.672 559.867C833.151 560.096 833.487 560.391 833.68 560.75C833.878 561.104 833.977 561.758 833.977 562.711L833.953 565.273C833.953 566.003 833.987 566.542 834.055 566.891C834.128 567.234 834.26 567.604 834.453 568H832.281C832.224 567.854 832.154 567.638 832.07 567.352C832.034 567.221 832.008 567.135 831.992 567.094C831.617 567.458 831.216 567.732 830.789 567.914C830.362 568.096 829.906 568.188 829.422 568.188C828.568 568.188 827.893 567.956 827.398 567.492C826.909 567.029 826.664 566.443 826.664 565.734C826.664 565.266 826.776 564.849 827 564.484C827.224 564.115 827.536 563.833 827.938 563.641C828.344 563.443 828.927 563.271 829.688 563.125C830.714 562.932 831.424 562.753 831.82 562.586V562.367C831.82 561.945 831.716 561.646 831.508 561.469C831.299 561.286 830.906 561.195 830.328 561.195C829.938 561.195 829.633 561.273 829.414 561.43C829.195 561.581 829.018 561.849 828.883 562.234ZM831.82 564.016C831.539 564.109 831.094 564.221 830.484 564.352C829.875 564.482 829.477 564.609 829.289 564.734C829.003 564.938 828.859 565.195 828.859 565.508C828.859 565.815 828.974 566.081 829.203 566.305C829.432 566.529 829.724 566.641 830.078 566.641C830.474 566.641 830.852 566.51 831.211 566.25C831.477 566.052 831.651 565.81 831.734 565.523C831.792 565.336 831.82 564.979 831.82 564.453V564.016ZM839.953 559.703V561.453H838.453V564.797C838.453 565.474 838.466 565.87 838.492 565.984C838.523 566.094 838.589 566.185 838.688 566.258C838.792 566.331 838.917 566.367 839.062 566.367C839.266 566.367 839.56 566.297 839.945 566.156L840.133 567.859C839.622 568.078 839.044 568.188 838.398 568.188C838.003 568.188 837.646 568.122 837.328 567.992C837.01 567.857 836.776 567.685 836.625 567.477C836.479 567.263 836.378 566.977 836.32 566.617C836.273 566.362 836.25 565.846 836.25 565.07V561.453H835.242V559.703H836.25V558.055L838.453 556.773V559.703H839.953ZM841.477 558.578V556.547H843.672V558.578H841.477ZM841.477 568V559.703H843.672V568H841.477ZM845.422 563.734C845.422 563.005 845.602 562.299 845.961 561.617C846.32 560.935 846.828 560.414 847.484 560.055C848.146 559.695 848.883 559.516 849.695 559.516C850.951 559.516 851.979 559.924 852.781 560.742C853.583 561.555 853.984 562.583 853.984 563.828C853.984 565.083 853.578 566.125 852.766 566.953C851.958 567.776 850.94 568.188 849.711 568.188C848.951 568.188 848.224 568.016 847.531 567.672C846.844 567.328 846.32 566.826 845.961 566.164C845.602 565.497 845.422 564.688 845.422 563.734ZM847.672 563.852C847.672 564.674 847.867 565.305 848.258 565.742C848.648 566.18 849.13 566.398 849.703 566.398C850.276 566.398 850.755 566.18 851.141 565.742C851.531 565.305 851.727 564.669 851.727 563.836C851.727 563.023 851.531 562.398 851.141 561.961C850.755 561.523 850.276 561.305 849.703 561.305C849.13 561.305 848.648 561.523 848.258 561.961C847.867 562.398 847.672 563.029 847.672 563.852ZM863.258 568H861.062V563.766C861.062 562.87 861.016 562.292 860.922 562.031C860.828 561.766 860.674 561.56 860.461 561.414C860.253 561.268 860 561.195 859.703 561.195C859.323 561.195 858.982 561.299 858.68 561.508C858.378 561.716 858.169 561.992 858.055 562.336C857.945 562.68 857.891 563.315 857.891 564.242V568H855.695V559.703H857.734V560.922C858.458 559.984 859.37 559.516 860.469 559.516C860.953 559.516 861.396 559.604 861.797 559.781C862.198 559.953 862.5 560.174 862.703 560.445C862.911 560.716 863.055 561.023 863.133 561.367C863.216 561.711 863.258 562.203 863.258 562.844V568Z" fill="#FF5C00"/>
<path d="M165.961 478H164.555V469.039C164.216 469.362 163.771 469.685 163.219 470.008C162.672 470.331 162.18 470.573 161.742 470.734V469.375C162.529 469.005 163.216 468.557 163.805 468.031C164.393 467.505 164.81 466.995 165.055 466.5H165.961V478ZM173.68 478H172.273V469.039C171.935 469.362 171.49 469.685 170.938 470.008C170.391 470.331 169.898 470.573 169.461 470.734V469.375C170.247 469.005 170.935 468.557 171.523 468.031C172.112 467.505 172.529 466.995 172.773 466.5H173.68V478ZM177.555 469.297C177.555 468.479 177.76 467.784 178.172 467.211C178.583 466.638 179.18 466.352 179.961 466.352C180.68 466.352 181.273 466.609 181.742 467.125C182.216 467.635 182.453 468.388 182.453 469.383C182.453 470.352 182.214 471.099 181.734 471.625C181.26 472.146 180.674 472.406 179.977 472.406C179.284 472.406 178.706 472.148 178.242 471.633C177.784 471.117 177.555 470.339 177.555 469.297ZM180 467.32C179.651 467.32 179.359 467.471 179.125 467.773C178.896 468.076 178.781 468.63 178.781 469.438C178.781 470.172 178.898 470.69 179.133 470.992C179.367 471.289 179.656 471.438 180 471.438C180.354 471.438 180.646 471.286 180.875 470.984C181.109 470.682 181.227 470.13 181.227 469.328C181.227 468.589 181.109 468.07 180.875 467.773C180.641 467.471 180.349 467.32 180 467.32ZM180.008 478.422L186.273 466.352H187.414L181.172 478.422H180.008ZM184.961 475.312C184.961 474.49 185.167 473.794 185.578 473.227C185.99 472.654 186.589 472.367 187.375 472.367C188.094 472.367 188.688 472.625 189.156 473.141C189.63 473.651 189.867 474.404 189.867 475.398C189.867 476.367 189.628 477.115 189.148 477.641C188.674 478.161 188.086 478.422 187.383 478.422C186.69 478.422 186.112 478.164 185.648 477.648C185.19 477.128 184.961 476.349 184.961 475.312ZM187.414 473.336C187.06 473.336 186.766 473.487 186.531 473.789C186.302 474.091 186.188 474.646 186.188 475.453C186.188 476.182 186.305 476.698 186.539 477C186.773 477.302 187.062 477.453 187.406 477.453C187.766 477.453 188.06 477.302 188.289 477C188.523 476.698 188.641 476.146 188.641 475.344C188.641 474.604 188.523 474.086 188.289 473.789C188.055 473.487 187.763 473.336 187.414 473.336Z" fill="#FF5C00"/>
<circle cx="200" cy="643.034" r="4" fill="#4682B4"/>
<path d="M199.5 643.034L736 590" stroke="#4682B4" stroke-width="3"/>
<circle cx="738" cy="589" r="4" fill="#4682B4"/>
<path d="M746.758 582.047V580.695H754.172V581.789C753.443 582.565 752.719 583.596 752 584.883C751.286 586.169 750.734 587.492 750.344 588.852C750.062 589.81 749.883 590.859 749.805 592H748.359C748.375 591.099 748.552 590.01 748.891 588.734C749.229 587.458 749.714 586.229 750.344 585.047C750.979 583.859 751.654 582.859 752.367 582.047H746.758ZM755.836 583.297C755.836 582.479 756.042 581.784 756.453 581.211C756.865 580.638 757.461 580.352 758.242 580.352C758.961 580.352 759.555 580.609 760.023 581.125C760.497 581.635 760.734 582.388 760.734 583.383C760.734 584.352 760.495 585.099 760.016 585.625C759.542 586.146 758.956 586.406 758.258 586.406C757.565 586.406 756.987 586.148 756.523 585.633C756.065 585.117 755.836 584.339 755.836 583.297ZM758.281 581.32C757.932 581.32 757.641 581.471 757.406 581.773C757.177 582.076 757.062 582.63 757.062 583.438C757.062 584.172 757.18 584.69 757.414 584.992C757.648 585.289 757.938 585.438 758.281 585.438C758.635 585.438 758.927 585.286 759.156 584.984C759.391 584.682 759.508 584.13 759.508 583.328C759.508 582.589 759.391 582.07 759.156 581.773C758.922 581.471 758.63 581.32 758.281 581.32ZM758.289 592.422L764.555 580.352H765.695L759.453 592.422H758.289ZM763.242 589.312C763.242 588.49 763.448 587.794 763.859 587.227C764.271 586.654 764.87 586.367 765.656 586.367C766.375 586.367 766.969 586.625 767.438 587.141C767.911 587.651 768.148 588.404 768.148 589.398C768.148 590.367 767.909 591.115 767.43 591.641C766.956 592.161 766.367 592.422 765.664 592.422C764.971 592.422 764.393 592.164 763.93 591.648C763.471 591.128 763.242 590.349 763.242 589.312ZM765.695 587.336C765.341 587.336 765.047 587.487 764.812 587.789C764.583 588.091 764.469 588.646 764.469 589.453C764.469 590.182 764.586 590.698 764.82 591C765.055 591.302 765.344 591.453 765.688 591.453C766.047 591.453 766.341 591.302 766.57 591C766.805 590.698 766.922 590.146 766.922 589.344C766.922 588.604 766.805 588.086 766.57 587.789C766.336 587.487 766.044 587.336 765.695 587.336ZM788.117 592V580.547H791.828C793.234 580.547 794.151 580.604 794.578 580.719C795.234 580.891 795.784 581.266 796.227 581.844C796.669 582.417 796.891 583.159 796.891 584.07C796.891 584.773 796.763 585.365 796.508 585.844C796.253 586.323 795.927 586.701 795.531 586.977C795.141 587.247 794.742 587.427 794.336 587.516C793.784 587.625 792.984 587.68 791.938 587.68H790.43V592H788.117ZM790.43 582.484V585.734H791.695C792.607 585.734 793.216 585.674 793.523 585.555C793.831 585.435 794.07 585.247 794.242 584.992C794.419 584.737 794.508 584.44 794.508 584.102C794.508 583.685 794.385 583.341 794.141 583.07C793.896 582.799 793.586 582.63 793.211 582.562C792.935 582.51 792.38 582.484 791.547 582.484H790.43ZM798 589.633L800.203 589.297C800.297 589.724 800.487 590.049 800.773 590.273C801.06 590.492 801.461 590.602 801.977 590.602C802.544 590.602 802.971 590.497 803.258 590.289C803.451 590.143 803.547 589.948 803.547 589.703C803.547 589.536 803.495 589.398 803.391 589.289C803.281 589.185 803.036 589.089 802.656 589C800.885 588.609 799.763 588.253 799.289 587.93C798.633 587.482 798.305 586.859 798.305 586.062C798.305 585.344 798.589 584.74 799.156 584.25C799.724 583.76 800.604 583.516 801.797 583.516C802.932 583.516 803.776 583.701 804.328 584.07C804.88 584.44 805.26 584.987 805.469 585.711L803.398 586.094C803.31 585.771 803.141 585.523 802.891 585.352C802.646 585.18 802.294 585.094 801.836 585.094C801.258 585.094 800.844 585.174 800.594 585.336C800.427 585.451 800.344 585.599 800.344 585.781C800.344 585.938 800.417 586.07 800.562 586.18C800.76 586.326 801.443 586.531 802.609 586.797C803.781 587.062 804.599 587.388 805.062 587.773C805.521 588.164 805.75 588.708 805.75 589.406C805.75 590.167 805.432 590.82 804.797 591.367C804.161 591.914 803.221 592.188 801.977 592.188C800.846 592.188 799.951 591.958 799.289 591.5C798.633 591.042 798.203 590.419 798 589.633ZM806.641 583.703H808.977L810.961 589.594L812.898 583.703H815.172L812.242 591.688L811.719 593.133C811.526 593.617 811.341 593.987 811.164 594.242C810.992 594.497 810.792 594.703 810.562 594.859C810.339 595.021 810.06 595.146 809.727 595.234C809.398 595.323 809.026 595.367 808.609 595.367C808.188 595.367 807.773 595.323 807.367 595.234L807.172 593.516C807.516 593.583 807.826 593.617 808.102 593.617C808.612 593.617 808.99 593.466 809.234 593.164C809.479 592.867 809.667 592.487 809.797 592.023L806.641 583.703ZM823.82 586.156L821.656 586.547C821.583 586.115 821.417 585.789 821.156 585.57C820.901 585.352 820.568 585.242 820.156 585.242C819.609 585.242 819.172 585.432 818.844 585.812C818.521 586.188 818.359 586.818 818.359 587.703C818.359 588.688 818.523 589.383 818.852 589.789C819.185 590.195 819.63 590.398 820.188 590.398C820.604 590.398 820.945 590.281 821.211 590.047C821.477 589.807 821.664 589.398 821.773 588.82L823.93 589.188C823.706 590.177 823.276 590.924 822.641 591.43C822.005 591.935 821.154 592.188 820.086 592.188C818.872 592.188 817.904 591.805 817.18 591.039C816.461 590.273 816.102 589.214 816.102 587.859C816.102 586.49 816.464 585.424 817.188 584.664C817.911 583.898 818.891 583.516 820.125 583.516C821.135 583.516 821.938 583.734 822.531 584.172C823.13 584.604 823.56 585.266 823.82 586.156ZM827.68 580.547V584.758C828.388 583.93 829.234 583.516 830.219 583.516C830.724 583.516 831.18 583.609 831.586 583.797C831.992 583.984 832.297 584.224 832.5 584.516C832.708 584.807 832.849 585.13 832.922 585.484C833 585.839 833.039 586.388 833.039 587.133V592H830.844V587.617C830.844 586.747 830.802 586.195 830.719 585.961C830.635 585.727 830.487 585.542 830.273 585.406C830.065 585.266 829.802 585.195 829.484 585.195C829.12 585.195 828.794 585.284 828.508 585.461C828.221 585.638 828.01 585.906 827.875 586.266C827.745 586.62 827.68 587.146 827.68 587.844V592H825.484V580.547H827.68ZM834.766 587.734C834.766 587.005 834.945 586.299 835.305 585.617C835.664 584.935 836.172 584.414 836.828 584.055C837.49 583.695 838.227 583.516 839.039 583.516C840.294 583.516 841.323 583.924 842.125 584.742C842.927 585.555 843.328 586.583 843.328 587.828C843.328 589.083 842.922 590.125 842.109 590.953C841.302 591.776 840.284 592.188 839.055 592.188C838.294 592.188 837.568 592.016 836.875 591.672C836.188 591.328 835.664 590.826 835.305 590.164C834.945 589.497 834.766 588.688 834.766 587.734ZM837.016 587.852C837.016 588.674 837.211 589.305 837.602 589.742C837.992 590.18 838.474 590.398 839.047 590.398C839.62 590.398 840.099 590.18 840.484 589.742C840.875 589.305 841.07 588.669 841.07 587.836C841.07 587.023 840.875 586.398 840.484 585.961C840.099 585.523 839.62 585.305 839.047 585.305C838.474 585.305 837.992 585.523 837.602 585.961C837.211 586.398 837.016 587.029 837.016 587.852ZM845.055 592V580.547H847.25V592H845.055ZM849 587.734C849 587.005 849.18 586.299 849.539 585.617C849.898 584.935 850.406 584.414 851.062 584.055C851.724 583.695 852.461 583.516 853.273 583.516C854.529 583.516 855.557 583.924 856.359 584.742C857.161 585.555 857.562 586.583 857.562 587.828C857.562 589.083 857.156 590.125 856.344 590.953C855.536 591.776 854.518 592.188 853.289 592.188C852.529 592.188 851.802 592.016 851.109 591.672C850.422 591.328 849.898 590.826 849.539 590.164C849.18 589.497 849 588.688 849 587.734ZM851.25 587.852C851.25 588.674 851.445 589.305 851.836 589.742C852.227 590.18 852.708 590.398 853.281 590.398C853.854 590.398 854.333 590.18 854.719 589.742C855.109 589.305 855.305 588.669 855.305 587.836C855.305 587.023 855.109 586.398 854.719 585.961C854.333 585.523 853.854 585.305 853.281 585.305C852.708 585.305 852.227 585.523 851.836 585.961C851.445 586.398 851.25 587.029 851.25 587.852ZM859.086 592.547L861.594 592.852C861.635 593.143 861.732 593.344 861.883 593.453C862.091 593.609 862.419 593.688 862.867 593.688C863.44 593.688 863.87 593.602 864.156 593.43C864.349 593.315 864.495 593.13 864.594 592.875C864.661 592.693 864.695 592.357 864.695 591.867V590.656C864.039 591.552 863.211 592 862.211 592C861.096 592 860.214 591.529 859.562 590.586C859.052 589.841 858.797 588.914 858.797 587.805C858.797 586.414 859.13 585.352 859.797 584.617C860.469 583.883 861.302 583.516 862.297 583.516C863.323 583.516 864.169 583.966 864.836 584.867V583.703H866.891V591.148C866.891 592.128 866.81 592.859 866.648 593.344C866.487 593.828 866.26 594.208 865.969 594.484C865.677 594.76 865.286 594.977 864.797 595.133C864.312 595.289 863.698 595.367 862.953 595.367C861.547 595.367 860.549 595.125 859.961 594.641C859.372 594.161 859.078 593.552 859.078 592.812C859.078 592.74 859.081 592.651 859.086 592.547ZM861.047 587.68C861.047 588.56 861.216 589.206 861.555 589.617C861.898 590.023 862.32 590.227 862.82 590.227C863.357 590.227 863.81 590.018 864.18 589.602C864.549 589.18 864.734 588.557 864.734 587.734C864.734 586.875 864.557 586.237 864.203 585.82C863.849 585.404 863.401 585.195 862.859 585.195C862.333 585.195 861.898 585.401 861.555 585.812C861.216 586.219 861.047 586.841 861.047 587.68ZM868.031 583.703H870.367L872.352 589.594L874.289 583.703H876.562L873.633 591.688L873.109 593.133C872.917 593.617 872.732 593.987 872.555 594.242C872.383 594.497 872.182 594.703 871.953 594.859C871.729 595.021 871.451 595.146 871.117 595.234C870.789 595.323 870.417 595.367 870 595.367C869.578 595.367 869.164 595.323 868.758 595.234L868.562 593.516C868.906 593.583 869.216 593.617 869.492 593.617C870.003 593.617 870.38 593.466 870.625 593.164C870.87 592.867 871.057 592.487 871.188 592.023L868.031 583.703Z" fill="#4682B4"/>
<path d="M162.664 644L164.141 643.875C164.25 644.594 164.503 645.135 164.898 645.5C165.299 645.859 165.781 646.039 166.344 646.039C167.021 646.039 167.594 645.784 168.062 645.273C168.531 644.763 168.766 644.086 168.766 643.242C168.766 642.44 168.539 641.807 168.086 641.344C167.638 640.88 167.049 640.648 166.32 640.648C165.867 640.648 165.458 640.753 165.094 640.961C164.729 641.164 164.443 641.43 164.234 641.758L162.914 641.586L164.023 635.703H169.719V637.047H165.148L164.531 640.125C165.219 639.646 165.94 639.406 166.695 639.406C167.695 639.406 168.539 639.753 169.227 640.445C169.914 641.138 170.258 642.029 170.258 643.117C170.258 644.154 169.956 645.049 169.352 645.805C168.617 646.732 167.615 647.195 166.344 647.195C165.302 647.195 164.451 646.904 163.789 646.32C163.133 645.737 162.758 644.964 162.664 644ZM171.836 638.297C171.836 637.479 172.042 636.784 172.453 636.211C172.865 635.638 173.461 635.352 174.242 635.352C174.961 635.352 175.555 635.609 176.023 636.125C176.497 636.635 176.734 637.388 176.734 638.383C176.734 639.352 176.495 640.099 176.016 640.625C175.542 641.146 174.956 641.406 174.258 641.406C173.565 641.406 172.987 641.148 172.523 640.633C172.065 640.117 171.836 639.339 171.836 638.297ZM174.281 636.32C173.932 636.32 173.641 636.471 173.406 636.773C173.177 637.076 173.062 637.63 173.062 638.438C173.062 639.172 173.18 639.69 173.414 639.992C173.648 640.289 173.938 640.438 174.281 640.438C174.635 640.438 174.927 640.286 175.156 639.984C175.391 639.682 175.508 639.13 175.508 638.328C175.508 637.589 175.391 637.07 175.156 636.773C174.922 636.471 174.63 636.32 174.281 636.32ZM174.289 647.422L180.555 635.352H181.695L175.453 647.422H174.289ZM179.242 644.312C179.242 643.49 179.448 642.794 179.859 642.227C180.271 641.654 180.87 641.367 181.656 641.367C182.375 641.367 182.969 641.625 183.438 642.141C183.911 642.651 184.148 643.404 184.148 644.398C184.148 645.367 183.909 646.115 183.43 646.641C182.956 647.161 182.367 647.422 181.664 647.422C180.971 647.422 180.393 647.164 179.93 646.648C179.471 646.128 179.242 645.349 179.242 644.312ZM181.695 642.336C181.341 642.336 181.047 642.487 180.812 642.789C180.583 643.091 180.469 643.646 180.469 644.453C180.469 645.182 180.586 645.698 180.82 646C181.055 646.302 181.344 646.453 181.688 646.453C182.047 646.453 182.341 646.302 182.57 646C182.805 645.698 182.922 645.146 182.922 644.344C182.922 643.604 182.805 643.086 182.57 642.789C182.336 642.487 182.044 642.336 181.695 642.336Z" fill="#4682B4"/>
<circle cx="200" cy="681.918" r="4" fill="#4682B4"/>
<path d="M199.5 682L736.5 600" stroke="#4682B4" stroke-width="3"/>
<path d="M742 599.5C742 601.709 740.209 603.5 738 603.5C735.791 603.5 734 601.709 734 599.5C734 597.291 735.791 595.5 738 595.5C740.209 595.5 742 597.291 742 599.5Z" fill="#4682B4"/>
<path d="M754.961 600.352L753.562 600.461C753.438 599.909 753.26 599.508 753.031 599.258C752.651 598.857 752.182 598.656 751.625 598.656C751.177 598.656 750.784 598.781 750.445 599.031C750.003 599.354 749.654 599.826 749.398 600.445C749.143 601.065 749.01 601.948 749 603.094C749.339 602.578 749.753 602.195 750.242 601.945C750.732 601.695 751.245 601.57 751.781 601.57C752.719 601.57 753.516 601.917 754.172 602.609C754.833 603.297 755.164 604.188 755.164 605.281C755.164 606 755.008 606.669 754.695 607.289C754.388 607.904 753.964 608.375 753.422 608.703C752.88 609.031 752.266 609.195 751.578 609.195C750.406 609.195 749.451 608.766 748.711 607.906C747.971 607.042 747.602 605.62 747.602 603.641C747.602 601.427 748.01 599.818 748.828 598.812C749.542 597.938 750.503 597.5 751.711 597.5C752.612 597.5 753.349 597.753 753.922 598.258C754.5 598.763 754.846 599.461 754.961 600.352ZM749.219 605.289C749.219 605.773 749.32 606.237 749.523 606.68C749.732 607.122 750.021 607.461 750.391 607.695C750.76 607.924 751.148 608.039 751.555 608.039C752.148 608.039 752.659 607.799 753.086 607.32C753.513 606.841 753.727 606.19 753.727 605.367C753.727 604.576 753.516 603.953 753.094 603.5C752.672 603.042 752.141 602.812 751.5 602.812C750.865 602.812 750.326 603.042 749.883 603.5C749.44 603.953 749.219 604.549 749.219 605.289ZM757.359 609V607.398H758.961V609H757.359ZM761.117 599.047V597.695H768.531V598.789C767.802 599.565 767.078 600.596 766.359 601.883C765.646 603.169 765.094 604.492 764.703 605.852C764.422 606.81 764.242 607.859 764.164 609H762.719C762.734 608.099 762.911 607.01 763.25 605.734C763.589 604.458 764.073 603.229 764.703 602.047C765.339 600.859 766.013 599.859 766.727 599.047H761.117ZM770.195 600.297C770.195 599.479 770.401 598.784 770.812 598.211C771.224 597.638 771.82 597.352 772.602 597.352C773.32 597.352 773.914 597.609 774.383 598.125C774.857 598.635 775.094 599.388 775.094 600.383C775.094 601.352 774.854 602.099 774.375 602.625C773.901 603.146 773.315 603.406 772.617 603.406C771.924 603.406 771.346 603.148 770.883 602.633C770.424 602.117 770.195 601.339 770.195 600.297ZM772.641 598.32C772.292 598.32 772 598.471 771.766 598.773C771.536 599.076 771.422 599.63 771.422 600.438C771.422 601.172 771.539 601.69 771.773 601.992C772.008 602.289 772.297 602.438 772.641 602.438C772.995 602.438 773.286 602.286 773.516 601.984C773.75 601.682 773.867 601.13 773.867 600.328C773.867 599.589 773.75 599.07 773.516 598.773C773.281 598.471 772.99 598.32 772.641 598.32ZM772.648 609.422L778.914 597.352H780.055L773.812 609.422H772.648ZM777.602 606.312C777.602 605.49 777.807 604.794 778.219 604.227C778.63 603.654 779.229 603.367 780.016 603.367C780.734 603.367 781.328 603.625 781.797 604.141C782.271 604.651 782.508 605.404 782.508 606.398C782.508 607.367 782.268 608.115 781.789 608.641C781.315 609.161 780.727 609.422 780.023 609.422C779.331 609.422 778.753 609.164 778.289 608.648C777.831 608.128 777.602 607.349 777.602 606.312ZM780.055 604.336C779.701 604.336 779.406 604.487 779.172 604.789C778.943 605.091 778.828 605.646 778.828 606.453C778.828 607.182 778.945 607.698 779.18 608C779.414 608.302 779.703 608.453 780.047 608.453C780.406 608.453 780.701 608.302 780.93 608C781.164 607.698 781.281 607.146 781.281 606.344C781.281 605.604 781.164 605.086 780.93 604.789C780.695 604.487 780.404 604.336 780.055 604.336ZM789.125 597.547H793.703C794.609 597.547 795.284 597.586 795.727 597.664C796.174 597.737 796.573 597.893 796.922 598.133C797.276 598.372 797.57 598.693 797.805 599.094C798.039 599.49 798.156 599.935 798.156 600.43C798.156 600.966 798.01 601.458 797.719 601.906C797.432 602.354 797.042 602.69 796.547 602.914C797.245 603.117 797.781 603.464 798.156 603.953C798.531 604.443 798.719 605.018 798.719 605.68C798.719 606.201 798.596 606.708 798.352 607.203C798.112 607.693 797.781 608.086 797.359 608.383C796.943 608.674 796.427 608.854 795.812 608.922C795.427 608.964 794.497 608.99 793.023 609H789.125V597.547ZM791.438 599.453V602.102H792.953C793.854 602.102 794.414 602.089 794.633 602.062C795.029 602.016 795.339 601.88 795.562 601.656C795.792 601.427 795.906 601.128 795.906 600.758C795.906 600.404 795.807 600.117 795.609 599.898C795.417 599.674 795.128 599.539 794.742 599.492C794.513 599.466 793.854 599.453 792.766 599.453H791.438ZM791.438 604.008V607.07H793.578C794.411 607.07 794.94 607.047 795.164 607C795.508 606.938 795.786 606.786 796 606.547C796.219 606.302 796.328 605.977 796.328 605.57C796.328 605.227 796.245 604.935 796.078 604.695C795.911 604.456 795.669 604.281 795.352 604.172C795.039 604.062 794.357 604.008 793.305 604.008H791.438ZM800.664 599.578V597.547H802.859V599.578H800.664ZM800.664 609V600.703H802.859V609H800.664ZM804.609 604.734C804.609 604.005 804.789 603.299 805.148 602.617C805.508 601.935 806.016 601.414 806.672 601.055C807.333 600.695 808.07 600.516 808.883 600.516C810.138 600.516 811.167 600.924 811.969 601.742C812.771 602.555 813.172 603.583 813.172 604.828C813.172 606.083 812.766 607.125 811.953 607.953C811.146 608.776 810.128 609.188 808.898 609.188C808.138 609.188 807.411 609.016 806.719 608.672C806.031 608.328 805.508 607.826 805.148 607.164C804.789 606.497 804.609 605.688 804.609 604.734ZM806.859 604.852C806.859 605.674 807.055 606.305 807.445 606.742C807.836 607.18 808.318 607.398 808.891 607.398C809.464 607.398 809.943 607.18 810.328 606.742C810.719 606.305 810.914 605.669 810.914 604.836C810.914 604.023 810.719 603.398 810.328 602.961C809.943 602.523 809.464 602.305 808.891 602.305C808.318 602.305 807.836 602.523 807.445 602.961C807.055 603.398 806.859 604.029 806.859 604.852ZM814.898 609V597.547H817.094V609H814.898ZM818.844 604.734C818.844 604.005 819.023 603.299 819.383 602.617C819.742 601.935 820.25 601.414 820.906 601.055C821.568 600.695 822.305 600.516 823.117 600.516C824.372 600.516 825.401 600.924 826.203 601.742C827.005 602.555 827.406 603.583 827.406 604.828C827.406 606.083 827 607.125 826.188 607.953C825.38 608.776 824.362 609.188 823.133 609.188C822.372 609.188 821.646 609.016 820.953 608.672C820.266 608.328 819.742 607.826 819.383 607.164C819.023 606.497 818.844 605.688 818.844 604.734ZM821.094 604.852C821.094 605.674 821.289 606.305 821.68 606.742C822.07 607.18 822.552 607.398 823.125 607.398C823.698 607.398 824.177 607.18 824.562 606.742C824.953 606.305 825.148 605.669 825.148 604.836C825.148 604.023 824.953 603.398 824.562 602.961C824.177 602.523 823.698 602.305 823.125 602.305C822.552 602.305 822.07 602.523 821.68 602.961C821.289 603.398 821.094 604.029 821.094 604.852ZM828.93 609.547L831.438 609.852C831.479 610.143 831.576 610.344 831.727 610.453C831.935 610.609 832.263 610.688 832.711 610.688C833.284 610.688 833.714 610.602 834 610.43C834.193 610.315 834.339 610.13 834.438 609.875C834.505 609.693 834.539 609.357 834.539 608.867V607.656C833.883 608.552 833.055 609 832.055 609C830.94 609 830.057 608.529 829.406 607.586C828.896 606.841 828.641 605.914 828.641 604.805C828.641 603.414 828.974 602.352 829.641 601.617C830.312 600.883 831.146 600.516 832.141 600.516C833.167 600.516 834.013 600.966 834.68 601.867V600.703H836.734V608.148C836.734 609.128 836.654 609.859 836.492 610.344C836.331 610.828 836.104 611.208 835.812 611.484C835.521 611.76 835.13 611.977 834.641 612.133C834.156 612.289 833.542 612.367 832.797 612.367C831.391 612.367 830.393 612.125 829.805 611.641C829.216 611.161 828.922 610.552 828.922 609.812C828.922 609.74 828.924 609.651 828.93 609.547ZM830.891 604.68C830.891 605.56 831.06 606.206 831.398 606.617C831.742 607.023 832.164 607.227 832.664 607.227C833.201 607.227 833.654 607.018 834.023 606.602C834.393 606.18 834.578 605.557 834.578 604.734C834.578 603.875 834.401 603.237 834.047 602.82C833.693 602.404 833.245 602.195 832.703 602.195C832.177 602.195 831.742 602.401 831.398 602.812C831.06 603.219 830.891 603.841 830.891 604.68ZM837.875 600.703H840.211L842.195 606.594L844.133 600.703H846.406L843.477 608.688L842.953 610.133C842.76 610.617 842.576 610.987 842.398 611.242C842.227 611.497 842.026 611.703 841.797 611.859C841.573 612.021 841.294 612.146 840.961 612.234C840.633 612.323 840.26 612.367 839.844 612.367C839.422 612.367 839.008 612.323 838.602 612.234L838.406 610.516C838.75 610.583 839.06 610.617 839.336 610.617C839.846 610.617 840.224 610.466 840.469 610.164C840.714 609.867 840.901 609.487 841.031 609.023L837.875 600.703Z" fill="#4682B4"/>
<path d="M162.672 683.977L164.078 683.789C164.24 684.586 164.513 685.161 164.898 685.516C165.289 685.865 165.763 686.039 166.32 686.039C166.982 686.039 167.539 685.81 167.992 685.352C168.451 684.893 168.68 684.326 168.68 683.648C168.68 683.003 168.469 682.471 168.047 682.055C167.625 681.633 167.089 681.422 166.438 681.422C166.172 681.422 165.841 681.474 165.445 681.578L165.602 680.344C165.695 680.354 165.771 680.359 165.828 680.359C166.427 680.359 166.966 680.203 167.445 679.891C167.924 679.578 168.164 679.096 168.164 678.445C168.164 677.93 167.99 677.503 167.641 677.164C167.292 676.826 166.841 676.656 166.289 676.656C165.742 676.656 165.286 676.828 164.922 677.172C164.557 677.516 164.323 678.031 164.219 678.719L162.812 678.469C162.984 677.526 163.375 676.797 163.984 676.281C164.594 675.76 165.352 675.5 166.258 675.5C166.883 675.5 167.458 675.635 167.984 675.906C168.51 676.172 168.911 676.536 169.188 677C169.469 677.464 169.609 677.956 169.609 678.477C169.609 678.971 169.477 679.422 169.211 679.828C168.945 680.234 168.552 680.557 168.031 680.797C168.708 680.953 169.234 681.279 169.609 681.773C169.984 682.263 170.172 682.878 170.172 683.617C170.172 684.617 169.807 685.466 169.078 686.164C168.349 686.857 167.427 687.203 166.312 687.203C165.307 687.203 164.471 686.904 163.805 686.305C163.143 685.706 162.766 684.93 162.672 683.977ZM171.836 678.297C171.836 677.479 172.042 676.784 172.453 676.211C172.865 675.638 173.461 675.352 174.242 675.352C174.961 675.352 175.555 675.609 176.023 676.125C176.497 676.635 176.734 677.388 176.734 678.383C176.734 679.352 176.495 680.099 176.016 680.625C175.542 681.146 174.956 681.406 174.258 681.406C173.565 681.406 172.987 681.148 172.523 680.633C172.065 680.117 171.836 679.339 171.836 678.297ZM174.281 676.32C173.932 676.32 173.641 676.471 173.406 676.773C173.177 677.076 173.062 677.63 173.062 678.438C173.062 679.172 173.18 679.69 173.414 679.992C173.648 680.289 173.938 680.438 174.281 680.438C174.635 680.438 174.927 680.286 175.156 679.984C175.391 679.682 175.508 679.13 175.508 678.328C175.508 677.589 175.391 677.07 175.156 676.773C174.922 676.471 174.63 676.32 174.281 676.32ZM174.289 687.422L180.555 675.352H181.695L175.453 687.422H174.289ZM179.242 684.312C179.242 683.49 179.448 682.794 179.859 682.227C180.271 681.654 180.87 681.367 181.656 681.367C182.375 681.367 182.969 681.625 183.438 682.141C183.911 682.651 184.148 683.404 184.148 684.398C184.148 685.367 183.909 686.115 183.43 686.641C182.956 687.161 182.367 687.422 181.664 687.422C180.971 687.422 180.393 687.164 179.93 686.648C179.471 686.128 179.242 685.349 179.242 684.312ZM181.695 682.336C181.341 682.336 181.047 682.487 180.812 682.789C180.583 683.091 180.469 683.646 180.469 684.453C180.469 685.182 180.586 685.698 180.82 686C181.055 686.302 181.344 686.453 181.688 686.453C182.047 686.453 182.341 686.302 182.57 686C182.805 685.698 182.922 685.146 182.922 684.344C182.922 683.604 182.805 683.086 182.57 682.789C182.336 682.487 182.044 682.336 181.695 682.336Z" fill="#4682B4"/>
<path d="M197 722.5H738" stroke="black" stroke-width="2"/>
<line x1="198" y1="723" x2="198" y2="743" stroke="black" stroke-width="2"/>
<line x1="737" y1="723" x2="737" y2="743" stroke="black" stroke-width="2"/>
<path d="M135.521 754.758C135.521 753.883 135.652 753.148 135.914 752.555C136.109 752.117 136.375 751.725 136.711 751.377C137.051 751.029 137.422 750.771 137.824 750.604C138.359 750.377 138.977 750.264 139.676 750.264C140.941 750.264 141.953 750.656 142.711 751.441C143.473 752.227 143.854 753.318 143.854 754.717C143.854 756.104 143.477 757.189 142.723 757.975C141.969 758.756 140.961 759.146 139.699 759.146C138.422 759.146 137.406 758.758 136.652 757.98C135.898 757.199 135.521 756.125 135.521 754.758ZM137.309 754.699C137.309 755.672 137.533 756.41 137.982 756.914C138.432 757.414 139.002 757.664 139.693 757.664C140.385 757.664 140.951 757.416 141.393 756.92C141.838 756.42 142.061 755.672 142.061 754.676C142.061 753.691 141.844 752.957 141.41 752.473C140.98 751.988 140.408 751.746 139.693 751.746C138.979 751.746 138.402 751.992 137.965 752.484C137.527 752.973 137.309 753.711 137.309 754.699ZM146.912 759L144.404 752.777H146.133L147.305 755.953L147.645 757.014C147.734 756.744 147.791 756.566 147.814 756.48C147.869 756.305 147.928 756.129 147.99 755.953L149.174 752.777H150.867L148.395 759H146.912ZM155.484 757.02L157.125 757.295C156.914 757.896 156.58 758.355 156.123 758.672C155.67 758.984 155.102 759.141 154.418 759.141C153.336 759.141 152.535 758.787 152.016 758.08C151.605 757.514 151.4 756.799 151.4 755.936C151.4 754.904 151.67 754.098 152.209 753.516C152.748 752.93 153.43 752.637 154.254 752.637C155.18 752.637 155.91 752.943 156.445 753.557C156.98 754.166 157.236 755.102 157.213 756.363H153.088C153.1 756.852 153.232 757.232 153.486 757.506C153.74 757.775 154.057 757.91 154.436 757.91C154.693 757.91 154.91 757.84 155.086 757.699C155.262 757.559 155.395 757.332 155.484 757.02ZM155.578 755.355C155.566 754.879 155.443 754.518 155.209 754.271C154.975 754.021 154.689 753.896 154.354 753.896C153.994 753.896 153.697 754.027 153.463 754.289C153.229 754.551 153.113 754.906 153.117 755.355H155.578ZM160.137 759H158.49V752.777H160.02V753.662C160.281 753.244 160.516 752.969 160.723 752.836C160.934 752.703 161.172 752.637 161.438 752.637C161.812 752.637 162.174 752.74 162.521 752.947L162.012 754.383C161.734 754.203 161.477 754.113 161.238 754.113C161.008 754.113 160.812 754.178 160.652 754.307C160.492 754.432 160.365 754.66 160.271 754.992C160.182 755.324 160.137 756.02 160.137 757.078V759ZM164.467 754.676L162.973 754.406C163.141 753.805 163.43 753.359 163.84 753.07C164.25 752.781 164.859 752.637 165.668 752.637C166.402 752.637 166.949 752.725 167.309 752.9C167.668 753.072 167.92 753.293 168.064 753.562C168.213 753.828 168.287 754.318 168.287 755.033L168.27 756.955C168.27 757.502 168.295 757.906 168.346 758.168C168.4 758.426 168.5 758.703 168.645 759H167.016C166.973 758.891 166.92 758.729 166.857 758.514C166.83 758.416 166.811 758.352 166.799 758.32C166.518 758.594 166.217 758.799 165.896 758.936C165.576 759.072 165.234 759.141 164.871 759.141C164.23 759.141 163.725 758.967 163.354 758.619C162.986 758.271 162.803 757.832 162.803 757.301C162.803 756.949 162.887 756.637 163.055 756.363C163.223 756.086 163.457 755.875 163.758 755.73C164.062 755.582 164.5 755.453 165.07 755.344C165.84 755.199 166.373 755.064 166.67 754.939V754.775C166.67 754.459 166.592 754.234 166.436 754.102C166.279 753.965 165.984 753.896 165.551 753.896C165.258 753.896 165.029 753.955 164.865 754.072C164.701 754.186 164.568 754.387 164.467 754.676ZM166.67 756.012C166.459 756.082 166.125 756.166 165.668 756.264C165.211 756.361 164.912 756.457 164.771 756.551C164.557 756.703 164.449 756.896 164.449 757.131C164.449 757.361 164.535 757.561 164.707 757.729C164.879 757.896 165.098 757.98 165.363 757.98C165.66 757.98 165.943 757.883 166.213 757.688C166.412 757.539 166.543 757.357 166.605 757.143C166.648 757.002 166.67 756.734 166.67 756.34V756.012ZM169.916 759V750.41H171.562V759H169.916ZM173.256 759V750.41H174.902V759H173.256ZM183.943 755.842V754.395H187.682V757.816C187.318 758.168 186.791 758.479 186.1 758.748C185.412 759.014 184.715 759.146 184.008 759.146C183.109 759.146 182.326 758.959 181.658 758.584C180.99 758.205 180.488 757.666 180.152 756.967C179.816 756.264 179.648 755.5 179.648 754.676C179.648 753.781 179.836 752.986 180.211 752.291C180.586 751.596 181.135 751.062 181.857 750.691C182.408 750.406 183.094 750.264 183.914 750.264C184.98 750.264 185.812 750.488 186.41 750.938C187.012 751.383 187.398 752 187.57 752.789L185.848 753.111C185.727 752.689 185.498 752.357 185.162 752.115C184.83 751.869 184.414 751.746 183.914 751.746C183.156 751.746 182.553 751.986 182.104 752.467C181.658 752.947 181.436 753.66 181.436 754.605C181.436 755.625 181.662 756.391 182.115 756.902C182.568 757.41 183.162 757.664 183.896 757.664C184.26 757.664 184.623 757.594 184.986 757.453C185.354 757.309 185.668 757.135 185.93 756.932V755.842H183.943ZM190.852 759H189.205V752.777H190.734V753.662C190.996 753.244 191.23 752.969 191.438 752.836C191.648 752.703 191.887 752.637 192.152 752.637C192.527 752.637 192.889 752.74 193.236 752.947L192.727 754.383C192.449 754.203 192.191 754.113 191.953 754.113C191.723 754.113 191.527 754.178 191.367 754.307C191.207 754.432 191.08 754.66 190.986 754.992C190.896 755.324 190.852 756.02 190.852 757.078V759ZM195.182 754.676L193.688 754.406C193.855 753.805 194.145 753.359 194.555 753.07C194.965 752.781 195.574 752.637 196.383 752.637C197.117 752.637 197.664 752.725 198.023 752.9C198.383 753.072 198.635 753.293 198.779 753.562C198.928 753.828 199.002 754.318 199.002 755.033L198.984 756.955C198.984 757.502 199.01 757.906 199.061 758.168C199.115 758.426 199.215 758.703 199.359 759H197.73C197.688 758.891 197.635 758.729 197.572 758.514C197.545 758.416 197.525 758.352 197.514 758.32C197.232 758.594 196.932 758.799 196.611 758.936C196.291 759.072 195.949 759.141 195.586 759.141C194.945 759.141 194.439 758.967 194.068 758.619C193.701 758.271 193.518 757.832 193.518 757.301C193.518 756.949 193.602 756.637 193.77 756.363C193.938 756.086 194.172 755.875 194.473 755.73C194.777 755.582 195.215 755.453 195.785 755.344C196.555 755.199 197.088 755.064 197.385 754.939V754.775C197.385 754.459 197.307 754.234 197.15 754.102C196.994 753.965 196.699 753.896 196.266 753.896C195.973 753.896 195.744 753.955 195.58 754.072C195.416 754.186 195.283 754.387 195.182 754.676ZM197.385 756.012C197.174 756.082 196.84 756.166 196.383 756.264C195.926 756.361 195.627 756.457 195.486 756.551C195.271 756.703 195.164 756.896 195.164 757.131C195.164 757.361 195.25 757.561 195.422 757.729C195.594 757.896 195.812 757.98 196.078 757.98C196.375 757.98 196.658 757.883 196.928 757.688C197.127 757.539 197.258 757.357 197.32 757.143C197.363 757.002 197.385 756.734 197.385 756.34V756.012ZM206.338 759H204.809V758.086C204.555 758.441 204.254 758.707 203.906 758.883C203.562 759.055 203.215 759.141 202.863 759.141C202.148 759.141 201.535 758.854 201.023 758.279C200.516 757.701 200.262 756.896 200.262 755.865C200.262 754.811 200.51 754.01 201.006 753.463C201.502 752.912 202.129 752.637 202.887 752.637C203.582 752.637 204.184 752.926 204.691 753.504V750.41H206.338V759ZM201.943 755.754C201.943 756.418 202.035 756.898 202.219 757.195C202.484 757.625 202.855 757.84 203.332 757.84C203.711 757.84 204.033 757.68 204.299 757.359C204.564 757.035 204.697 756.553 204.697 755.912C204.697 755.197 204.568 754.684 204.311 754.371C204.053 754.055 203.723 753.896 203.32 753.896C202.93 753.896 202.602 754.053 202.336 754.365C202.074 754.674 201.943 755.137 201.943 755.754ZM212.062 759V758.068C211.836 758.4 211.537 758.662 211.166 758.854C210.799 759.045 210.41 759.141 210 759.141C209.582 759.141 209.207 759.049 208.875 758.865C208.543 758.682 208.303 758.424 208.154 758.092C208.006 757.76 207.932 757.301 207.932 756.715V752.777H209.578V755.637C209.578 756.512 209.607 757.049 209.666 757.248C209.729 757.443 209.84 757.6 210 757.717C210.16 757.83 210.363 757.887 210.609 757.887C210.891 757.887 211.143 757.811 211.365 757.658C211.588 757.502 211.74 757.311 211.822 757.084C211.904 756.854 211.945 756.293 211.945 755.402V752.777H213.592V759H212.062ZM216.533 754.676L215.039 754.406C215.207 753.805 215.496 753.359 215.906 753.07C216.316 752.781 216.926 752.637 217.734 752.637C218.469 752.637 219.016 752.725 219.375 752.9C219.734 753.072 219.986 753.293 220.131 753.562C220.279 753.828 220.354 754.318 220.354 755.033L220.336 756.955C220.336 757.502 220.361 757.906 220.412 758.168C220.467 758.426 220.566 758.703 220.711 759H219.082C219.039 758.891 218.986 758.729 218.924 758.514C218.896 758.416 218.877 758.352 218.865 758.32C218.584 758.594 218.283 758.799 217.963 758.936C217.643 759.072 217.301 759.141 216.938 759.141C216.297 759.141 215.791 758.967 215.42 758.619C215.053 758.271 214.869 757.832 214.869 757.301C214.869 756.949 214.953 756.637 215.121 756.363C215.289 756.086 215.523 755.875 215.824 755.73C216.129 755.582 216.566 755.453 217.137 755.344C217.906 755.199 218.439 755.064 218.736 754.939V754.775C218.736 754.459 218.658 754.234 218.502 754.102C218.346 753.965 218.051 753.896 217.617 753.896C217.324 753.896 217.096 753.955 216.932 754.072C216.768 754.186 216.635 754.387 216.533 754.676ZM218.736 756.012C218.525 756.082 218.191 756.166 217.734 756.264C217.277 756.361 216.979 756.457 216.838 756.551C216.623 756.703 216.516 756.896 216.516 757.131C216.516 757.361 216.602 757.561 216.773 757.729C216.945 757.896 217.164 757.98 217.43 757.98C217.727 757.98 218.01 757.883 218.279 757.688C218.479 757.539 218.609 757.357 218.672 757.143C218.715 757.002 218.736 756.734 218.736 756.34V756.012ZM224.836 752.777V754.09H223.711V756.598C223.711 757.105 223.721 757.402 223.74 757.488C223.764 757.57 223.812 757.639 223.887 757.693C223.965 757.748 224.059 757.775 224.168 757.775C224.32 757.775 224.541 757.723 224.83 757.617L224.971 758.895C224.588 759.059 224.154 759.141 223.67 759.141C223.373 759.141 223.105 759.092 222.867 758.994C222.629 758.893 222.453 758.764 222.34 758.607C222.23 758.447 222.154 758.232 222.111 757.963C222.076 757.771 222.059 757.385 222.059 756.803V754.09H221.303V752.777H222.059V751.541L223.711 750.58V752.777H224.836ZM229.582 757.02L231.223 757.295C231.012 757.896 230.678 758.355 230.221 758.672C229.768 758.984 229.199 759.141 228.516 759.141C227.434 759.141 226.633 758.787 226.113 758.08C225.703 757.514 225.498 756.799 225.498 755.936C225.498 754.904 225.768 754.098 226.307 753.516C226.846 752.93 227.527 752.637 228.352 752.637C229.277 752.637 230.008 752.943 230.543 753.557C231.078 754.166 231.334 755.102 231.311 756.363H227.186C227.197 756.852 227.33 757.232 227.584 757.506C227.838 757.775 228.154 757.91 228.533 757.91C228.791 757.91 229.008 757.84 229.184 757.699C229.359 757.559 229.492 757.332 229.582 757.02ZM229.676 755.355C229.664 754.879 229.541 754.518 229.307 754.271C229.072 754.021 228.787 753.896 228.451 753.896C228.092 753.896 227.795 754.027 227.561 754.289C227.326 754.551 227.211 754.906 227.215 755.355H229.676ZM236.01 759V750.41H238.793C239.848 750.41 240.535 750.453 240.855 750.539C241.348 750.668 241.76 750.949 242.092 751.383C242.424 751.812 242.59 752.369 242.59 753.053C242.59 753.58 242.494 754.023 242.303 754.383C242.111 754.742 241.867 755.025 241.57 755.232C241.277 755.436 240.979 755.57 240.674 755.637C240.26 755.719 239.66 755.76 238.875 755.76H237.744V759H236.01ZM237.744 751.863V754.301H238.693C239.377 754.301 239.834 754.256 240.064 754.166C240.295 754.076 240.475 753.936 240.604 753.744C240.736 753.553 240.803 753.33 240.803 753.076C240.803 752.764 240.711 752.506 240.527 752.303C240.344 752.1 240.111 751.973 239.83 751.922C239.623 751.883 239.207 751.863 238.582 751.863H237.744ZM243.621 755.801C243.621 755.254 243.756 754.725 244.025 754.213C244.295 753.701 244.676 753.311 245.168 753.041C245.664 752.771 246.217 752.637 246.826 752.637C247.768 752.637 248.539 752.943 249.141 753.557C249.742 754.166 250.043 754.938 250.043 755.871C250.043 756.812 249.738 757.594 249.129 758.215C248.523 758.832 247.76 759.141 246.838 759.141C246.268 759.141 245.723 759.012 245.203 758.754C244.688 758.496 244.295 758.119 244.025 757.623C243.756 757.123 243.621 756.516 243.621 755.801ZM245.309 755.889C245.309 756.506 245.455 756.979 245.748 757.307C246.041 757.635 246.402 757.799 246.832 757.799C247.262 757.799 247.621 757.635 247.91 757.307C248.203 756.979 248.35 756.502 248.35 755.877C248.35 755.268 248.203 754.799 247.91 754.471C247.621 754.143 247.262 753.979 246.832 753.979C246.402 753.979 246.041 754.143 245.748 754.471C245.455 754.799 245.309 755.271 245.309 755.889ZM251.291 752.777H252.826V753.691C253.025 753.379 253.295 753.125 253.635 752.93C253.975 752.734 254.352 752.637 254.766 752.637C255.488 752.637 256.102 752.92 256.605 753.486C257.109 754.053 257.361 754.842 257.361 755.854C257.361 756.893 257.107 757.701 256.6 758.279C256.092 758.854 255.477 759.141 254.754 759.141C254.41 759.141 254.098 759.072 253.816 758.936C253.539 758.799 253.246 758.564 252.938 758.232V761.367H251.291V752.777ZM252.92 755.783C252.92 756.482 253.059 757 253.336 757.336C253.613 757.668 253.951 757.834 254.35 757.834C254.732 757.834 255.051 757.682 255.305 757.377C255.559 757.068 255.686 756.564 255.686 755.865C255.686 755.213 255.555 754.729 255.293 754.412C255.031 754.096 254.707 753.938 254.32 753.938C253.918 753.938 253.584 754.094 253.318 754.406C253.053 754.715 252.92 755.174 252.92 755.783ZM262.77 759V758.068C262.543 758.4 262.244 758.662 261.873 758.854C261.506 759.045 261.117 759.141 260.707 759.141C260.289 759.141 259.914 759.049 259.582 758.865C259.25 758.682 259.01 758.424 258.861 758.092C258.713 757.76 258.639 757.301 258.639 756.715V752.777H260.285V755.637C260.285 756.512 260.314 757.049 260.373 757.248C260.436 757.443 260.547 757.6 260.707 757.717C260.867 757.83 261.07 757.887 261.316 757.887C261.598 757.887 261.85 757.811 262.072 757.658C262.295 757.502 262.447 757.311 262.529 757.084C262.611 756.854 262.652 756.293 262.652 755.402V752.777H264.299V759H262.77ZM266.01 759V750.41H267.656V759H266.01ZM270.58 754.676L269.086 754.406C269.254 753.805 269.543 753.359 269.953 753.07C270.363 752.781 270.973 752.637 271.781 752.637C272.516 752.637 273.062 752.725 273.422 752.9C273.781 753.072 274.033 753.293 274.178 753.562C274.326 753.828 274.4 754.318 274.4 755.033L274.383 756.955C274.383 757.502 274.408 757.906 274.459 758.168C274.514 758.426 274.613 758.703 274.758 759H273.129C273.086 758.891 273.033 758.729 272.971 758.514C272.943 758.416 272.924 758.352 272.912 758.32C272.631 758.594 272.33 758.799 272.01 758.936C271.689 759.072 271.348 759.141 270.984 759.141C270.344 759.141 269.838 758.967 269.467 758.619C269.1 758.271 268.916 757.832 268.916 757.301C268.916 756.949 269 756.637 269.168 756.363C269.336 756.086 269.57 755.875 269.871 755.73C270.176 755.582 270.613 755.453 271.184 755.344C271.953 755.199 272.486 755.064 272.783 754.939V754.775C272.783 754.459 272.705 754.234 272.549 754.102C272.393 753.965 272.098 753.896 271.664 753.896C271.371 753.896 271.143 753.955 270.979 754.072C270.814 754.186 270.682 754.387 270.58 754.676ZM272.783 756.012C272.572 756.082 272.238 756.166 271.781 756.264C271.324 756.361 271.025 756.457 270.885 756.551C270.67 756.703 270.562 756.896 270.562 757.131C270.562 757.361 270.648 757.561 270.82 757.729C270.992 757.896 271.211 757.98 271.477 757.98C271.773 757.98 272.057 757.883 272.326 757.688C272.525 757.539 272.656 757.357 272.719 757.143C272.762 757.002 272.783 756.734 272.783 756.34V756.012ZM278.883 752.777V754.09H277.758V756.598C277.758 757.105 277.768 757.402 277.787 757.488C277.811 757.57 277.859 757.639 277.934 757.693C278.012 757.748 278.105 757.775 278.215 757.775C278.367 757.775 278.588 757.723 278.877 757.617L279.018 758.895C278.635 759.059 278.201 759.141 277.717 759.141C277.42 759.141 277.152 759.092 276.914 758.994C276.676 758.893 276.5 758.764 276.387 758.607C276.277 758.447 276.201 758.232 276.158 757.963C276.123 757.771 276.105 757.385 276.105 756.803V754.09H275.35V752.777H276.105V751.541L277.758 750.58V752.777H278.883ZM280.025 751.934V750.41H281.672V751.934H280.025ZM280.025 759V752.777H281.672V759H280.025ZM282.984 755.801C282.984 755.254 283.119 754.725 283.389 754.213C283.658 753.701 284.039 753.311 284.531 753.041C285.027 752.771 285.58 752.637 286.189 752.637C287.131 752.637 287.902 752.943 288.504 753.557C289.105 754.166 289.406 754.938 289.406 755.871C289.406 756.812 289.102 757.594 288.492 758.215C287.887 758.832 287.123 759.141 286.201 759.141C285.631 759.141 285.086 759.012 284.566 758.754C284.051 758.496 283.658 758.119 283.389 757.623C283.119 757.123 282.984 756.516 282.984 755.801ZM284.672 755.889C284.672 756.506 284.818 756.979 285.111 757.307C285.404 757.635 285.766 757.799 286.195 757.799C286.625 757.799 286.984 757.635 287.273 757.307C287.566 756.979 287.713 756.502 287.713 755.877C287.713 755.268 287.566 754.799 287.273 754.471C286.984 754.143 286.625 753.979 286.195 753.979C285.766 753.979 285.404 754.143 285.111 754.471C284.818 754.799 284.672 755.271 284.672 755.889ZM296.361 759H294.715V755.824C294.715 755.152 294.68 754.719 294.609 754.523C294.539 754.324 294.424 754.17 294.264 754.061C294.107 753.951 293.918 753.896 293.695 753.896C293.41 753.896 293.154 753.975 292.928 754.131C292.701 754.287 292.545 754.494 292.459 754.752C292.377 755.01 292.336 755.486 292.336 756.182V759H290.689V752.777H292.219V753.691C292.762 752.988 293.445 752.637 294.27 752.637C294.633 752.637 294.965 752.703 295.266 752.836C295.566 752.965 295.793 753.131 295.945 753.334C296.102 753.537 296.209 753.768 296.268 754.025C296.33 754.283 296.361 754.652 296.361 755.133V759Z" fill="black"/>
<path d="M686.879 759V750.41H690.529C691.447 750.41 692.113 750.488 692.527 750.645C692.945 750.797 693.279 751.07 693.529 751.465C693.779 751.859 693.904 752.311 693.904 752.818C693.904 753.463 693.715 753.996 693.336 754.418C692.957 754.836 692.391 755.1 691.637 755.209C692.012 755.428 692.32 755.668 692.562 755.93C692.809 756.191 693.139 756.656 693.553 757.324L694.602 759H692.527L691.273 757.131C690.828 756.463 690.523 756.043 690.359 755.871C690.195 755.695 690.021 755.576 689.838 755.514C689.654 755.447 689.363 755.414 688.965 755.414H688.613V759H686.879ZM688.613 754.043H689.896C690.729 754.043 691.248 754.008 691.455 753.938C691.662 753.867 691.824 753.746 691.941 753.574C692.059 753.402 692.117 753.188 692.117 752.93C692.117 752.641 692.039 752.408 691.883 752.232C691.73 752.053 691.514 751.939 691.232 751.893C691.092 751.873 690.67 751.863 689.967 751.863H688.613V754.043ZM699.137 757.02L700.777 757.295C700.566 757.896 700.232 758.355 699.775 758.672C699.322 758.984 698.754 759.141 698.07 759.141C696.988 759.141 696.188 758.787 695.668 758.08C695.258 757.514 695.053 756.799 695.053 755.936C695.053 754.904 695.322 754.098 695.861 753.516C696.4 752.93 697.082 752.637 697.906 752.637C698.832 752.637 699.562 752.943 700.098 753.557C700.633 754.166 700.889 755.102 700.865 756.363H696.74C696.752 756.852 696.885 757.232 697.139 757.506C697.393 757.775 697.709 757.91 698.088 757.91C698.346 757.91 698.562 757.84 698.738 757.699C698.914 757.559 699.047 757.332 699.137 757.02ZM699.23 755.355C699.219 754.879 699.096 754.518 698.861 754.271C698.627 754.021 698.342 753.896 698.006 753.896C697.646 753.896 697.35 754.027 697.115 754.289C696.881 754.551 696.766 754.906 696.77 755.355H699.23ZM707.639 754.617L706.016 754.91C705.961 754.586 705.836 754.342 705.641 754.178C705.449 754.014 705.199 753.932 704.891 753.932C704.48 753.932 704.152 754.074 703.906 754.359C703.664 754.641 703.543 755.113 703.543 755.777C703.543 756.516 703.666 757.037 703.912 757.342C704.162 757.646 704.496 757.799 704.914 757.799C705.227 757.799 705.482 757.711 705.682 757.535C705.881 757.355 706.021 757.049 706.104 756.615L707.721 756.891C707.553 757.633 707.23 758.193 706.754 758.572C706.277 758.951 705.639 759.141 704.838 759.141C703.928 759.141 703.201 758.854 702.658 758.279C702.119 757.705 701.85 756.91 701.85 755.895C701.85 754.867 702.121 754.068 702.664 753.498C703.207 752.924 703.941 752.637 704.867 752.637C705.625 752.637 706.227 752.801 706.672 753.129C707.121 753.453 707.443 753.949 707.639 754.617ZM712.496 757.02L714.137 757.295C713.926 757.896 713.592 758.355 713.135 758.672C712.682 758.984 712.113 759.141 711.43 759.141C710.348 759.141 709.547 758.787 709.027 758.08C708.617 757.514 708.412 756.799 708.412 755.936C708.412 754.904 708.682 754.098 709.221 753.516C709.76 752.93 710.441 752.637 711.266 752.637C712.191 752.637 712.922 752.943 713.457 753.557C713.992 754.166 714.248 755.102 714.225 756.363H710.1C710.111 756.852 710.244 757.232 710.498 757.506C710.752 757.775 711.068 757.91 711.447 757.91C711.705 757.91 711.922 757.84 712.098 757.699C712.273 757.559 712.406 757.332 712.496 757.02ZM712.59 755.355C712.578 754.879 712.455 754.518 712.221 754.271C711.986 754.021 711.701 753.896 711.365 753.896C711.006 753.896 710.709 754.027 710.475 754.289C710.24 754.551 710.125 754.906 710.129 755.355H712.59ZM721.232 759H719.586V755.824C719.586 755.152 719.551 754.719 719.48 754.523C719.41 754.324 719.295 754.17 719.135 754.061C718.979 753.951 718.789 753.896 718.566 753.896C718.281 753.896 718.025 753.975 717.799 754.131C717.572 754.287 717.416 754.494 717.33 754.752C717.248 755.01 717.207 755.486 717.207 756.182V759H715.561V752.777H717.09V753.691C717.633 752.988 718.316 752.637 719.141 752.637C719.504 752.637 719.836 752.703 720.137 752.836C720.438 752.965 720.664 753.131 720.816 753.334C720.973 753.537 721.08 753.768 721.139 754.025C721.201 754.283 721.232 754.652 721.232 755.133V759ZM725.762 752.777V754.09H724.637V756.598C724.637 757.105 724.646 757.402 724.666 757.488C724.689 757.57 724.738 757.639 724.812 757.693C724.891 757.748 724.984 757.775 725.094 757.775C725.246 757.775 725.467 757.723 725.756 757.617L725.896 758.895C725.514 759.059 725.08 759.141 724.596 759.141C724.299 759.141 724.031 759.092 723.793 758.994C723.555 758.893 723.379 758.764 723.266 758.607C723.156 758.447 723.08 758.232 723.037 757.963C723.002 757.771 722.984 757.385 722.984 756.803V754.09H722.229V752.777H722.984V751.541L724.637 750.58V752.777H725.762ZM734.252 755.842V754.395H737.99V757.816C737.627 758.168 737.1 758.479 736.408 758.748C735.721 759.014 735.023 759.146 734.316 759.146C733.418 759.146 732.635 758.959 731.967 758.584C731.299 758.205 730.797 757.666 730.461 756.967C730.125 756.264 729.957 755.5 729.957 754.676C729.957 753.781 730.145 752.986 730.52 752.291C730.895 751.596 731.443 751.062 732.166 750.691C732.717 750.406 733.402 750.264 734.223 750.264C735.289 750.264 736.121 750.488 736.719 750.938C737.32 751.383 737.707 752 737.879 752.789L736.156 753.111C736.035 752.689 735.807 752.357 735.471 752.115C735.139 751.869 734.723 751.746 734.223 751.746C733.465 751.746 732.861 751.986 732.412 752.467C731.967 752.947 731.744 753.66 731.744 754.605C731.744 755.625 731.971 756.391 732.424 756.902C732.877 757.41 733.471 757.664 734.205 757.664C734.568 757.664 734.932 757.594 735.295 757.453C735.662 757.309 735.977 757.135 736.238 756.932V755.842H734.252ZM741.16 759H739.514V752.777H741.043V753.662C741.305 753.244 741.539 752.969 741.746 752.836C741.957 752.703 742.195 752.637 742.461 752.637C742.836 752.637 743.197 752.74 743.545 752.947L743.035 754.383C742.758 754.203 742.5 754.113 742.262 754.113C742.031 754.113 741.836 754.178 741.676 754.307C741.516 754.432 741.389 754.66 741.295 754.992C741.205 755.324 741.16 756.02 741.16 757.078V759ZM745.49 754.676L743.996 754.406C744.164 753.805 744.453 753.359 744.863 753.07C745.273 752.781 745.883 752.637 746.691 752.637C747.426 752.637 747.973 752.725 748.332 752.9C748.691 753.072 748.943 753.293 749.088 753.562C749.236 753.828 749.311 754.318 749.311 755.033L749.293 756.955C749.293 757.502 749.318 757.906 749.369 758.168C749.424 758.426 749.523 758.703 749.668 759H748.039C747.996 758.891 747.943 758.729 747.881 758.514C747.854 758.416 747.834 758.352 747.822 758.32C747.541 758.594 747.24 758.799 746.92 758.936C746.6 759.072 746.258 759.141 745.895 759.141C745.254 759.141 744.748 758.967 744.377 758.619C744.01 758.271 743.826 757.832 743.826 757.301C743.826 756.949 743.91 756.637 744.078 756.363C744.246 756.086 744.48 755.875 744.781 755.73C745.086 755.582 745.523 755.453 746.094 755.344C746.863 755.199 747.396 755.064 747.693 754.939V754.775C747.693 754.459 747.615 754.234 747.459 754.102C747.303 753.965 747.008 753.896 746.574 753.896C746.281 753.896 746.053 753.955 745.889 754.072C745.725 754.186 745.592 754.387 745.49 754.676ZM747.693 756.012C747.482 756.082 747.148 756.166 746.691 756.264C746.234 756.361 745.936 756.457 745.795 756.551C745.58 756.703 745.473 756.896 745.473 757.131C745.473 757.361 745.559 757.561 745.73 757.729C745.902 757.896 746.121 757.98 746.387 757.98C746.684 757.98 746.967 757.883 747.236 757.688C747.436 757.539 747.566 757.357 747.629 757.143C747.672 757.002 747.693 756.734 747.693 756.34V756.012ZM756.646 759H755.117V758.086C754.863 758.441 754.562 758.707 754.215 758.883C753.871 759.055 753.523 759.141 753.172 759.141C752.457 759.141 751.844 758.854 751.332 758.279C750.824 757.701 750.57 756.896 750.57 755.865C750.57 754.811 750.818 754.01 751.314 753.463C751.811 752.912 752.438 752.637 753.195 752.637C753.891 752.637 754.492 752.926 755 753.504V750.41H756.646V759ZM752.252 755.754C752.252 756.418 752.344 756.898 752.527 757.195C752.793 757.625 753.164 757.84 753.641 757.84C754.02 757.84 754.342 757.68 754.607 757.359C754.873 757.035 755.006 756.553 755.006 755.912C755.006 755.197 754.877 754.684 754.619 754.371C754.361 754.055 754.031 753.896 753.629 753.896C753.238 753.896 752.91 754.053 752.645 754.365C752.383 754.674 752.252 755.137 752.252 755.754ZM762.371 759V758.068C762.145 758.4 761.846 758.662 761.475 758.854C761.107 759.045 760.719 759.141 760.309 759.141C759.891 759.141 759.516 759.049 759.184 758.865C758.852 758.682 758.611 758.424 758.463 758.092C758.314 757.76 758.24 757.301 758.24 756.715V752.777H759.887V755.637C759.887 756.512 759.916 757.049 759.975 757.248C760.037 757.443 760.148 757.6 760.309 757.717C760.469 757.83 760.672 757.887 760.918 757.887C761.199 757.887 761.451 757.811 761.674 757.658C761.896 757.502 762.049 757.311 762.131 757.084C762.213 756.854 762.254 756.293 762.254 755.402V752.777H763.9V759H762.371ZM766.842 754.676L765.348 754.406C765.516 753.805 765.805 753.359 766.215 753.07C766.625 752.781 767.234 752.637 768.043 752.637C768.777 752.637 769.324 752.725 769.684 752.9C770.043 753.072 770.295 753.293 770.439 753.562C770.588 753.828 770.662 754.318 770.662 755.033L770.645 756.955C770.645 757.502 770.67 757.906 770.721 758.168C770.775 758.426 770.875 758.703 771.02 759H769.391C769.348 758.891 769.295 758.729 769.232 758.514C769.205 758.416 769.186 758.352 769.174 758.32C768.893 758.594 768.592 758.799 768.271 758.936C767.951 759.072 767.609 759.141 767.246 759.141C766.605 759.141 766.1 758.967 765.729 758.619C765.361 758.271 765.178 757.832 765.178 757.301C765.178 756.949 765.262 756.637 765.43 756.363C765.598 756.086 765.832 755.875 766.133 755.73C766.438 755.582 766.875 755.453 767.445 755.344C768.215 755.199 768.748 755.064 769.045 754.939V754.775C769.045 754.459 768.967 754.234 768.811 754.102C768.654 753.965 768.359 753.896 767.926 753.896C767.633 753.896 767.404 753.955 767.24 754.072C767.076 754.186 766.943 754.387 766.842 754.676ZM769.045 756.012C768.834 756.082 768.5 756.166 768.043 756.264C767.586 756.361 767.287 756.457 767.146 756.551C766.932 756.703 766.824 756.896 766.824 757.131C766.824 757.361 766.91 757.561 767.082 757.729C767.254 757.896 767.473 757.98 767.738 757.98C768.035 757.98 768.318 757.883 768.588 757.688C768.787 757.539 768.918 757.357 768.98 757.143C769.023 757.002 769.045 756.734 769.045 756.34V756.012ZM775.145 752.777V754.09H774.02V756.598C774.02 757.105 774.029 757.402 774.049 757.488C774.072 757.57 774.121 757.639 774.195 757.693C774.273 757.748 774.367 757.775 774.477 757.775C774.629 757.775 774.85 757.723 775.139 757.617L775.279 758.895C774.896 759.059 774.463 759.141 773.979 759.141C773.682 759.141 773.414 759.092 773.176 758.994C772.938 758.893 772.762 758.764 772.648 758.607C772.539 758.447 772.463 758.232 772.42 757.963C772.385 757.771 772.367 757.385 772.367 756.803V754.09H771.611V752.777H772.367V751.541L774.02 750.58V752.777H775.145ZM779.891 757.02L781.531 757.295C781.32 757.896 780.986 758.355 780.529 758.672C780.076 758.984 779.508 759.141 778.824 759.141C777.742 759.141 776.941 758.787 776.422 758.08C776.012 757.514 775.807 756.799 775.807 755.936C775.807 754.904 776.076 754.098 776.615 753.516C777.154 752.93 777.836 752.637 778.66 752.637C779.586 752.637 780.316 752.943 780.852 753.557C781.387 754.166 781.643 755.102 781.619 756.363H777.494C777.506 756.852 777.639 757.232 777.893 757.506C778.146 757.775 778.463 757.91 778.842 757.91C779.1 757.91 779.316 757.84 779.492 757.699C779.668 757.559 779.801 757.332 779.891 757.02ZM779.984 755.355C779.973 754.879 779.85 754.518 779.615 754.271C779.381 754.021 779.096 753.896 778.76 753.896C778.4 753.896 778.104 754.027 777.869 754.289C777.635 754.551 777.52 754.906 777.523 755.355H779.984ZM782.387 757.225L784.039 756.973C784.109 757.293 784.252 757.537 784.467 757.705C784.682 757.869 784.982 757.951 785.369 757.951C785.795 757.951 786.115 757.873 786.33 757.717C786.475 757.607 786.547 757.461 786.547 757.277C786.547 757.152 786.508 757.049 786.43 756.967C786.348 756.889 786.164 756.816 785.879 756.75C784.551 756.457 783.709 756.189 783.354 755.947C782.861 755.611 782.615 755.145 782.615 754.547C782.615 754.008 782.828 753.555 783.254 753.188C783.68 752.82 784.34 752.637 785.234 752.637C786.086 752.637 786.719 752.775 787.133 753.053C787.547 753.33 787.832 753.74 787.988 754.283L786.436 754.57C786.369 754.328 786.242 754.143 786.055 754.014C785.871 753.885 785.607 753.82 785.264 753.82C784.83 753.82 784.52 753.881 784.332 754.002C784.207 754.088 784.145 754.199 784.145 754.336C784.145 754.453 784.199 754.553 784.309 754.635C784.457 754.744 784.969 754.898 785.844 755.098C786.723 755.297 787.336 755.541 787.684 755.83C788.027 756.123 788.199 756.531 788.199 757.055C788.199 757.625 787.961 758.115 787.484 758.525C787.008 758.936 786.303 759.141 785.369 759.141C784.521 759.141 783.85 758.969 783.354 758.625C782.861 758.281 782.539 757.814 782.387 757.225Z" fill="black"/>
</g>
<defs>
<clipPath id="clip0">
<rect width="967" height="914" fill="white"/>
</clipPath>
</defs>
</svg>
